<svg width="411" height="418" viewBox="0 0 411 418" fill="none" xmlns="http://www.w3.org/2000/svg">
<g id="cookies-svgrepo-com 1" clip-path="url(#clip0_2_3)">
<g id="cookie">
<path id="Vector" d="M376.327 191.219L357.229 194.967C350.873 196.214 344.486 192.971 341.853 187.159L321.396 141.99C319.665 138.166 316.234 135.339 312.098 134.323L301.44 131.709C295.273 130.196 290.948 124.76 290.948 118.522V46.0439C290.948 42.657 289.659 39.3918 287.334 36.888L261.603 9.18134C238.404 1.97251 213.397 -1.24348 187.398 0.4365C87.4736 6.89619 6.52579 86.6607 0.428557 184.744C-6.68554 299.2 85.8032 394.203 200.905 394.203C310.691 394.203 399.847 307.759 401.68 200.458L385.239 192.391C382.484 191.038 379.348 190.626 376.327 191.219Z" fill="#FFE6A1"/>
<g id="Group">
<path id="Vector_2" d="M263.241 333.033C262.022 333.033 260.821 332.964 259.607 332.943C251.996 341.32 240.947 346.626 228.61 346.626C210.438 346.626 195.032 335.162 189.385 319.218C164.529 309.566 142.11 295.205 123.268 277.229C120.417 278.072 117.457 278.66 114.326 278.66C97.1127 278.66 83.1583 264.967 83.1583 248.075C83.1583 242.176 84.9409 236.717 87.8895 232.045C87.6785 231.674 87.4533 231.315 87.2438 230.943C65.6237 229.505 48.5278 211.885 48.5278 190.305C48.5278 177.586 54.4642 166.234 63.7626 158.754C62.8815 151.262 62.3802 143.657 62.3802 135.931C62.3802 97.1664 73.8308 61.0468 93.527 30.5638C37.3596 65.5093 0.0441284 127.01 0.0441284 197.101C0.0441284 305.958 89.9727 394.203 200.905 394.203C272.333 394.203 335.007 357.586 370.62 302.47C339.555 321.797 302.747 333.033 263.241 333.033Z" fill="#FFD796"/>
<path id="Vector_3" d="M155.885 163.118C165.448 163.118 173.201 155.511 173.201 146.127C173.201 136.743 165.448 129.135 155.885 129.135C146.322 129.135 138.569 136.743 138.569 146.127C138.569 155.511 146.322 163.118 155.885 163.118Z" fill="#FFD796"/>
<path id="Vector_4" d="M339.431 275.262C348.994 275.262 356.746 267.655 356.746 258.271C356.746 248.887 348.994 241.279 339.431 241.279C329.867 241.279 322.115 248.887 322.115 258.271C322.115 267.655 329.867 275.262 339.431 275.262Z" fill="#FFD796"/>
<path id="Vector_5" d="M181.858 275.262C188.552 275.262 193.979 269.937 193.979 263.368C193.979 256.8 188.552 251.475 181.858 251.475C175.164 251.475 169.737 256.8 169.737 263.368C169.737 269.937 175.164 275.262 181.858 275.262Z" fill="#FFD796"/>
<path id="Vector_6" d="M275.363 166.516C282.057 166.516 287.484 161.191 287.484 154.622C287.484 148.053 282.057 142.728 275.363 142.728C268.669 142.728 263.242 148.053 263.242 154.622C263.242 161.191 268.669 166.516 275.363 166.516Z" fill="#FFD796"/>
<path id="Vector_7" d="M226.879 61.1692C233.573 61.1692 239 55.8442 239 49.2754C239 42.7066 233.573 37.3815 226.879 37.3815C220.185 37.3815 214.758 42.7066 214.758 49.2754C214.758 55.8442 220.185 61.1692 226.879 61.1692Z" fill="#FFD796"/>
</g>
<g id="Group_2">
<path id="Vector_8" d="M190.826 175.071L182.819 188.166C178.033 195.994 182.314 206.133 191.338 208.347L215.171 214.194C222.594 216.015 230.115 211.587 231.97 204.303L234.696 193.601C235.248 191.436 235.248 189.173 234.696 187.008L231.814 175.692C230.021 168.653 222.909 164.236 215.658 165.659L199.988 168.734C196.161 169.486 192.835 171.787 190.826 175.071Z" fill="#B97850"/>
<path id="Vector_9" d="M230.805 259.214L222.454 272.871C218.303 279.661 220.92 288.482 228.137 292.023L254.721 305.066C262.647 308.956 272.206 304.641 274.355 296.205L277.094 285.457L280.294 272.892C282.286 265.073 276.946 257.279 268.814 256.139L244.641 252.75C239.125 251.977 233.672 254.524 230.805 259.214Z" fill="#B97850"/>
<path id="Vector_10" d="M85.0634 178.129L74.872 194.797C71.6017 200.146 72.4609 206.992 76.9552 211.403L92.9942 227.143C98.8326 232.872 108.449 232.349 113.607 226.022L127.357 209.155C130.058 205.843 131.028 201.483 129.979 197.367L126.842 185.057C125.544 179.961 121.37 176.055 116.121 175.025L99.658 171.794C93.9177 170.667 88.0755 173.203 85.0634 178.129Z" fill="#B97850"/>
<path id="Vector_11" d="M141.46 67.7682L133.601 80.6214C129.042 88.0782 132.692 97.7608 141.099 100.511L158.153 106.089C163.13 107.717 168.618 106.446 172.328 102.805L181.507 93.798C184.948 90.4218 186.331 85.5212 185.151 80.8894L182.75 71.4662C181.208 65.4138 175.667 61.1684 169.311 61.1684H153.337C148.473 61.1692 143.964 63.6745 141.46 67.7682Z" fill="#B97850"/>
<path id="Vector_12" d="M308.759 172.826L300.741 180.694C295.332 186.001 295.332 194.608 300.741 199.917L304.665 203.767C308.882 207.905 315.322 208.931 320.656 206.314L343.344 195.182C349.151 192.333 352.163 185.908 350.589 179.727L349.561 175.694C347.768 168.654 340.656 164.238 333.406 165.661L315.839 169.108C313.156 169.634 310.693 170.928 308.759 172.826Z" fill="#B97850"/>
<path id="Vector_13" d="M257.252 75.804L248.052 87.841C244.673 92.262 244.358 98.252 247.256 102.991L255.768 116.912C259.837 123.567 268.749 125.534 275.33 121.229L292.615 109.921C299.232 105.592 300.784 96.6975 296.013 90.4549L286.617 78.1607C284.926 75.9487 282.588 74.2949 279.915 73.4211L272.714 71.0651C267.057 69.2134 260.829 71.1228 257.252 75.804Z" fill="#B97850"/>
<path id="Vector_14" d="M138.712 290.559L129.667 301.654C123.86 308.776 126.709 319.378 135.34 322.767L147.49 327.536C150.793 328.832 154.477 328.832 157.779 327.536L171.414 322.183C179.583 318.977 182.676 309.206 177.796 302.022L175.454 298.575C174.116 296.606 172.279 295.015 170.123 293.957L155.726 286.893C149.881 284.026 142.792 285.555 138.712 290.559Z" fill="#B97850"/>
</g>
<g id="Group_3">
<path id="Vector_15" d="M110.183 225.528L94.1437 209.789C89.6494 205.379 88.7895 198.532 92.0605 193.184L102.252 176.516C103.121 175.095 104.27 173.941 105.54 172.949L99.6588 171.796C93.9185 170.669 88.0755 173.205 85.0634 178.13L74.872 194.799C71.6017 200.147 72.4609 206.994 76.9552 211.404L92.9942 227.143C98.4057 232.454 107.019 232.326 112.362 227.25C111.597 226.752 110.859 226.192 110.183 225.528Z" fill="#A5694B"/>
<path id="Vector_16" d="M172.026 101.25L154.972 95.6727C146.566 92.9225 142.915 83.2399 147.475 75.7832L155.333 62.93C155.733 62.2755 156.261 61.7374 156.756 61.1692H153.337C148.471 61.1692 143.962 63.6745 141.458 67.769L133.6 80.6214C129.039 88.0781 132.689 97.7608 141.097 100.511L158.151 106.089C163.129 107.717 168.616 106.446 172.327 102.805L173.617 101.539C173.087 101.431 172.549 101.421 172.026 101.25Z" fill="#A5694B"/>
<path id="Vector_17" d="M228.314 210.286L204.481 204.439C195.456 202.225 191.175 192.085 195.962 184.258L203.969 171.163C204.923 169.603 206.189 168.288 207.649 167.232L199.988 168.736C196.162 169.486 192.834 171.788 190.826 175.072L182.819 188.168C178.033 195.995 182.314 206.135 191.338 208.349L215.171 214.195C220.192 215.427 225.214 213.755 228.539 210.319C228.464 210.3 228.39 210.304 228.314 210.286Z" fill="#A5694B"/>
<path id="Vector_18" d="M268.707 115.736L260.195 101.815C257.297 97.0763 257.612 91.0878 260.991 86.6653L270.191 74.629C271.198 73.3101 272.449 72.2769 273.805 71.42L272.713 71.0635C267.056 69.2134 260.828 71.1228 257.25 75.8032L248.051 87.8394C244.672 92.2611 244.357 98.2504 247.255 102.989L255.767 116.91C259.823 123.543 268.687 125.51 275.26 121.263C272.626 120.187 270.294 118.332 268.707 115.736Z" fill="#A5694B"/>
<path id="Vector_19" d="M315.782 202.862C310.372 197.553 310.372 188.947 315.782 183.638L323.8 175.771C325.734 173.873 328.196 172.579 330.879 172.053L345.665 169.151C342.502 166.201 337.985 164.761 333.405 165.66L315.838 169.108C313.156 169.634 310.693 170.928 308.759 172.825L300.741 180.693C295.332 186.001 295.332 194.608 300.741 199.916L304.665 203.767C308.62 207.648 314.505 208.665 319.624 206.633L315.782 202.862Z" fill="#A5694B"/>
<path id="Vector_20" d="M245.297 290.882C238.08 287.342 235.462 278.521 239.614 271.731L247.965 258.074C249.06 256.284 250.608 254.927 252.316 253.827L244.642 252.751C239.125 251.977 233.672 254.524 230.805 259.214L222.455 272.871C218.303 279.661 220.921 288.482 228.138 292.023L254.722 305.066C260.021 307.666 266 306.544 270.056 303.031L245.297 290.882Z" fill="#A5694B"/>
<path id="Vector_21" d="M161.342 325.264L149.192 320.495C140.562 317.108 137.713 306.504 143.519 299.382L152.564 288.287C153.139 287.583 153.784 286.967 154.465 286.403C148.889 284.308 142.506 285.905 138.712 290.559L129.667 301.654C123.86 308.776 126.709 319.378 135.34 322.767L147.49 327.536C150.793 328.832 154.477 328.832 157.779 327.536L162.626 325.633C162.196 325.511 161.759 325.428 161.342 325.264Z" fill="#A5694B"/>
</g>
<path id="Vector_22" d="M55.4457 278.654C54.4077 278.654 53.3484 278.422 52.3551 277.937C48.9326 276.258 47.5454 272.176 49.2575 268.818L56.184 255.225C57.8961 251.866 62.0451 250.519 65.477 252.185C68.8995 253.865 70.2867 257.946 68.5747 261.304L61.6481 274.897C60.4343 277.279 57.9894 278.654 55.4457 278.654Z" fill="#C98850"/>
<path id="Vector_23" d="M180.126 367.016H173.2C169.375 367.016 166.273 363.976 166.273 360.219C166.273 356.463 169.375 353.422 173.2 353.422H180.126C183.951 353.422 187.053 356.462 187.053 360.219C187.053 363.976 183.951 367.016 180.126 367.016Z" fill="#925F4A"/>
<path id="Vector_24" d="M152.415 237.881C151.377 237.881 150.317 237.649 149.324 237.164C145.902 235.484 144.514 231.403 146.226 228.045L153.153 214.452C154.861 211.1 159.011 209.746 162.446 211.412C165.868 213.092 167.256 217.173 165.544 220.531L158.617 234.124C157.403 236.507 154.958 237.881 152.415 237.881Z" fill="#C98850"/>
<g id="Group_4">
<path id="Vector_25" d="M110.858 129.135C109.819 129.135 108.76 128.904 107.767 128.419L93.9146 121.622C90.4921 119.942 89.1049 115.861 90.8169 112.503C92.525 109.151 96.678 107.79 100.11 109.463L113.962 116.259C117.385 117.939 118.772 122.02 117.06 125.378C115.846 127.761 113.4 129.135 110.858 129.135Z" fill="#925F4A"/>
<path id="Vector_26" d="M193.98 33.9822H180.127C176.302 33.9822 173.201 30.9426 173.201 27.1853C173.201 23.4281 176.302 20.3884 180.127 20.3884H193.98C197.805 20.3884 200.906 23.4281 200.906 27.1853C200.906 30.9426 197.805 33.9822 193.98 33.9822Z" fill="#925F4A"/>
</g>
<path id="Vector_27" d="M221.691 135.931C219.148 135.931 216.703 134.558 215.489 132.175L208.562 118.582C206.85 115.223 208.238 111.141 211.66 109.463C215.09 107.79 219.246 109.151 220.953 112.503L227.88 126.096C229.592 129.454 228.204 133.536 224.782 135.215C223.787 135.7 222.729 135.931 221.691 135.931Z" fill="#C98850"/>
<g id="Group_5">
<path id="Vector_28" d="M31.6099 169.212C30.6786 168.762 29.8336 168.094 29.1596 167.228C26.845 164.238 27.4405 159.975 30.4887 157.704L42.8244 148.514C45.8695 146.242 50.2108 146.832 52.5301 149.819C54.8447 152.809 54.2492 157.072 51.201 159.343L38.866 168.532C36.7029 170.142 33.8908 170.315 31.6099 169.212Z" fill="#925F4A"/>
<path id="Vector_29" d="M290.947 244.678C289.174 244.678 287.402 244.014 286.05 242.687L272.198 229.094C269.492 226.439 269.492 222.137 272.198 219.483C274.903 216.828 279.287 216.828 281.992 219.483L295.844 233.076C298.55 235.73 298.55 240.032 295.844 242.687C294.491 244.014 292.719 244.678 290.947 244.678Z" fill="#925F4A"/>
</g>
<path id="Vector_30" d="M304.799 312.644C303.027 312.644 301.254 311.98 299.902 310.653C297.197 307.998 297.197 303.696 299.902 301.042L306.829 294.245C309.534 291.59 313.918 291.59 316.623 294.245C319.329 296.9 319.329 301.201 316.623 303.856L309.697 310.653C308.343 311.98 306.572 312.644 304.799 312.644Z" fill="#C98850"/>
</g>
<g id="crumbs">
<g id="Group_6">
<path id="Vector_31" d="M326.01 28.8273V47.0103C326.01 52.1096 331.073 55.5956 335.728 53.7016L356.986 45.0534C359.676 43.9586 361.441 41.3085 361.441 38.3621V28.8273C361.441 24.8473 358.268 21.6201 354.354 21.6201H333.095C329.183 21.6201 326.01 24.8473 326.01 28.8273Z" fill="#FFE6A1"/>
<path id="Vector_32" d="M341.16 85.6443L336.638 117.838C335.574 125.411 340.514 132.511 347.888 134.011L360.866 136.65C366.498 137.796 372.252 135.372 375.438 130.512L380.319 123.066C382.847 119.208 383.397 114.35 381.797 110.01L367.013 69.9154C365.174 64.9288 358.884 63.5434 355.181 67.3095L345.169 77.4909C343 79.696 341.594 82.5575 341.16 85.6443Z" fill="#FFE6A1"/>
</g>
<g id="Group_7">
<path id="Vector_33" d="M376.686 123.848L363.708 121.209C356.332 119.708 351.394 112.609 352.457 105.036L356.979 72.843C357.383 69.9717 358.699 67.3494 360.615 65.2153C358.691 65.1166 356.717 65.746 355.181 67.307L345.169 77.4892C343 79.6943 341.593 82.5558 341.161 85.6426L336.639 117.836C335.575 125.41 340.514 132.508 347.889 134.008L360.867 136.648C366.498 137.792 372.253 135.369 375.439 130.509L379.709 123.996C378.704 124.016 377.698 124.055 376.686 123.848Z" fill="#FFD796"/>
<path id="Vector_34" d="M349.9 39.2871C345.245 41.1804 340.182 37.6943 340.182 32.5958V21.6201H333.095C329.182 21.6201 326.009 24.8473 326.009 28.8273V47.0103C326.009 52.1096 331.072 55.5956 335.727 53.7016L356.986 45.0534C359.676 43.9586 361.44 41.3094 361.44 38.3621V34.5928L349.9 39.2871Z" fill="#FFD796"/>
<path id="Vector_35" d="M379.146 157.177L374.957 165.697C373.96 167.726 373.96 170.114 374.957 172.142L376.869 176.032C378.775 179.909 383.591 181.21 387.137 178.806L398.561 171.061C400.532 169.723 401.716 167.473 401.716 165.064V157.299C401.716 152.381 396.978 148.907 392.389 150.463L383.242 153.564C381.46 154.167 379.986 155.467 379.146 157.177Z" fill="#FFD796"/>
</g>
</g>
</g>
<defs>
<clipPath id="clip0_2_3">
<rect width="411" height="418" fill="white"/>
</clipPath>
</defs>
</svg>
