<svg width="496" height="496" viewBox="0 0 496 496" fill="none" xmlns="http://www.w3.org/2000/svg">
<g id="cupcake-svgrepo-com 1" clip-path="url(#clip0_4_2)">
<path id="Vector" d="M350.4 167.2C347.2 167.2 343.2 167.2 340 168C325.6 129.6 289.6 102.4 246.4 102.4C203.2 102.4 167.2 129.6 152.8 168C149.6 168 145.6 167.2 142.4 167.2C87.2 167.2 42.4 212 42.4 267.2C42.4 322.4 87.2 367.2 142.4 367.2C185.6 367.2 221.6 340 236 301.6C239.2 301.6 243.2 302.4 246.4 302.4C249.6 302.4 253.6 302.4 256.8 301.6C271.2 340 307.2 367.2 350.4 367.2C405.6 367.2 450.4 322.4 450.4 267.2C450.4 212 405.6 167.2 350.4 167.2Z" fill="#562306"/>
<path id="Vector_2" d="M236 301.6C239.2 301.6 243.2 302.4 246.4 302.4C249.6 302.4 253.6 302.4 256.8 301.6C271.2 340 307.2 367.2 350.4 367.2C405.6 367.2 450.4 322.4 450.4 267.2C450.4 212 405.6 167.2 350.4 167.2C347.2 167.2 343.2 167.2 340 168C325.6 129.6 289.6 102.4 246.4 102.4" fill="#3D1704"/>
<path id="Vector_3" d="M358.4 487.2H132L41.6 287.2H452.8L358.4 487.2Z" fill="#74B208"/>
<path id="Vector_4" d="M47.2 287.2H452.8L360 487.2" fill="#3E9904"/>
<path id="Vector_5" d="M323.2 487.2H171.2L108.8 287.2H385.6L323.2 487.2Z" fill="#F7E98B"/>
<path id="Vector_6" d="M111.2 287.2H385.6L324.8 484" fill="#FFB31A"/>
<path id="Vector_7" d="M276.8 487.2H217.6L192.8 287.2H301.6L276.8 487.2Z" fill="#3E9904"/>
<path id="Vector_8" d="M279.2 487.2H217.6L194.4 290.4" fill="#74B208"/>
<g id="Group">
<path id="Vector_9" d="M461.6 283.2C461.6 286.4 457.6 287.2 453.6 287.2H41.6C36.8 287.2 33.6 286.4 33.6 283.2C33.6 280 37.6 279.2 41.6 279.2H453.6C457.6 279.2 461.6 280 461.6 283.2Z" fill="#3E9904"/>
<path id="Vector_10" d="M372 491.2C372 494.4 368.8 495.2 364.8 495.2H129.6C125.6 495.2 122.4 494.4 122.4 491.2C122.4 488 125.6 487.2 129.6 487.2H365.6C368.8 487.2 372 488 372 491.2Z" fill="#3E9904"/>
</g>
<path id="Vector_11" d="M136.809 181.926C133.043 175.427 116.045 178.241 98.843 188.209C81.6409 198.178 70.7488 211.528 74.5149 218.027C78.2809 224.525 95.279 221.712 112.481 211.743C129.683 201.774 140.575 188.424 136.809 181.926Z" fill="#7A3817"/>
<path id="Vector_12" d="M367.116 190.008C363.35 183.509 346.352 186.323 329.15 196.291C311.948 206.26 301.056 219.61 304.822 226.109C308.588 232.607 325.586 229.794 342.788 219.825C359.99 209.856 370.882 196.506 367.116 190.008Z" fill="#562306"/>
<path id="Vector_13" d="M239.995 124.147C236.229 117.648 219.23 120.461 202.028 130.43C184.826 140.399 173.934 153.749 177.7 160.247C181.466 166.746 198.464 163.933 215.666 153.964C232.869 143.995 243.761 130.645 239.995 124.147Z" fill="#7A3817"/>
<path id="Vector_14" d="M181.6 207.2C182.4 208.8 181.6 211.2 180 212L148 226.4C146.4 227.2 144 226.4 143.2 224.8C142.4 223.2 143.2 220.8 144.8 220L176.8 205.6C179.2 204.8 180.8 205.6 181.6 207.2Z" fill="#F7E98B"/>
<path id="Vector_15" d="M387.2 246.4C386.4 248 384 249.6 382.4 248.8L349.6 236.8C348 236 346.4 233.6 347.2 232C348 230.4 350.4 228.8 352 229.6L384.8 241.6C386.4 242.4 388 244.8 387.2 246.4Z" fill="#91EDEA"/>
<g id="Group_2">
<path id="Vector_16" d="M106.4 246.4C106.4 248.8 104.8 249.6 104 249.6L84 247.2C83.2 247.2 82.4 245.6 82.4 243.2C82.4 240.8 84 239.2 84.8 240L104 242.4C105.6 243.2 106.4 244.8 106.4 246.4Z" fill="#F7E98B"/>
<path id="Vector_17" d="M308 245.6C308 248 306.4 248.8 305.6 248.8L286.4 246.4C285.6 246.4 284.8 244.8 284.8 242.4C284.8 240 286.4 238.4 287.2 239.2L306.4 241.6C307.2 241.6 308 243.2 308 245.6Z" fill="#F7E98B"/>
<path id="Vector_18" d="M297.6 164C297.6 166.4 296 167.2 295.2 167.2L276 164.8C275.2 164.8 274.4 163.2 274.4 160.8C274.4 158.4 276 156.8 276.8 157.6L296 160C297.6 160 298.4 161.6 297.6 164Z" fill="#F7E98B"/>
</g>
<g id="Group_3">
<path id="Vector_19" d="M323.2 199.2C323.2 201.6 321.6 202.4 320.8 202.4L301.6 200C300.8 200 300 198.4 300 196C300 193.6 301.6 192 302.4 192.8L321.6 195.2C323.2 195.2 324 196.8 323.2 199.2Z" fill="#91EDEA"/>
<path id="Vector_20" d="M225.6 165.6C226.4 167.2 227.2 169.6 225.6 169.6L209.6 180.8C208.8 181.6 207.2 180.8 205.6 179.2C204.8 177.6 204 175.2 205.6 175.2L221.6 164C222.4 163.2 224 164 225.6 165.6Z" fill="#91EDEA"/>
<path id="Vector_21" d="M120.8 196C122.4 197.6 123.2 199.2 122.4 200L111.2 216C110.4 216.8 108.8 216.8 107.2 215.2C105.6 213.6 104.8 212 105.6 211.2L116.8 195.2C116.8 194.4 119.2 194.4 120.8 196Z" fill="#91EDEA"/>
</g>
<g id="Group_4">
<path id="Vector_22" d="M242.4 244.8C242.4 247.2 240.8 248 240 248L220.8 245.6C220 245.6 219.2 244 219.2 241.6C219.2 239.2 220.8 237.6 221.6 238.4L240.8 240.8C242.4 240.8 243.2 242.4 242.4 244.8Z" fill="#FF7C76"/>
<path id="Vector_23" d="M168 256.8C166.4 256 164.8 254.4 164.8 253.6L171.2 235.2C171.2 234.4 173.6 233.6 175.2 234.4C176.8 235.2 178.4 236.8 178.4 237.6L172 256C172 257.6 169.6 257.6 168 256.8Z" fill="#FF7C76"/>
<path id="Vector_24" d="M390.4 208.8C390.4 211.2 388.8 212 388 212L368.8 209.6C368 209.6 367.2 208 367.2 205.6C367.2 203.2 368.8 201.6 369.6 202.4L388.8 204.8C390.4 204.8 391.2 206.4 390.4 208.8Z" fill="#FF7C76"/>
</g>
<g id="cherry">
<path id="Vector_25" d="M246.4 127.2C272.468 127.2 293.6 106.068 293.6 80C293.6 53.9322 272.468 32.8 246.4 32.8C220.332 32.8 199.2 53.9322 199.2 80C199.2 106.068 220.332 127.2 246.4 127.2Z" fill="#D32E26"/>
<path id="Vector_26" d="M280 46.4C298.4 64.8 298.4 95.2 280 113.6C261.6 132 231.2 132 212.8 113.6" fill="#B20202"/>
<path id="Vector_27" d="M246.265 40.9161C244 37.6479 233.921 40.7111 223.753 47.7581C213.585 54.805 207.178 63.1671 209.443 66.4354C211.708 69.7036 221.787 66.6404 231.955 59.5934C242.123 52.5465 248.53 44.1844 246.265 40.9161Z" fill="#F24141"/>
<path id="Vector_28" d="M255.2 41.6C255.2 44.8 250.4 47.2 247.2 47.2C244 47.2 239.2 44.8 239.2 41.6V5.6C239.2 2.4 244 0 247.2 0C250.4 0 255.2 2.4 255.2 5.6V41.6Z" fill="#3D1704"/>
</g>
</g>
<defs>
<clipPath id="clip0_4_2">
<rect width="495.2" height="495.2" fill="white"/>
</clipPath>
</defs>
</svg>
